<mxfile host="app.diagrams.net" agent="Mozilla/5.0 (Windows NT 10.0; Win64; x64) AppleWebKit/537.36 (KHTML, like Gecko) Chrome/128.0.0.0 Safari/537.36 Edg/128.0.0.0" version="24.7.12">
  <diagram name="Page-1" id="ru3pUxCvkC-qsxqxbVOG">
    <mxGraphModel dx="1113" dy="1809" grid="1" gridSize="10" guides="1" tooltips="1" connect="1" arrows="1" fold="1" page="1" pageScale="1" pageWidth="850" pageHeight="1100" math="0" shadow="0">
      <root>
        <mxCell id="0" />
        <mxCell id="1" parent="0" />
        <mxCell id="BkH2xJ7Rn7NwIi7T6p0R-23" value="" style="edgeStyle=orthogonalEdgeStyle;rounded=0;orthogonalLoop=1;jettySize=auto;html=1;" edge="1" parent="1" source="BkH2xJ7Rn7NwIi7T6p0R-1" target="BkH2xJ7Rn7NwIi7T6p0R-22">
          <mxGeometry relative="1" as="geometry" />
        </mxCell>
        <mxCell id="BkH2xJ7Rn7NwIi7T6p0R-1" value="START" style="ellipse;whiteSpace=wrap;html=1;fontSize=20;" vertex="1" parent="1">
          <mxGeometry x="340" y="-80" width="120" height="60" as="geometry" />
        </mxCell>
        <mxCell id="BkH2xJ7Rn7NwIi7T6p0R-11" value="" style="edgeStyle=orthogonalEdgeStyle;rounded=0;orthogonalLoop=1;jettySize=auto;html=1;" edge="1" parent="1" source="BkH2xJ7Rn7NwIi7T6p0R-4" target="BkH2xJ7Rn7NwIi7T6p0R-10">
          <mxGeometry relative="1" as="geometry" />
        </mxCell>
        <mxCell id="BkH2xJ7Rn7NwIi7T6p0R-4" value="SET TIME FOR&amp;nbsp;&lt;div&gt;FOOD &amp;amp; WATER&lt;/div&gt;" style="shape=parallelogram;perimeter=parallelogramPerimeter;whiteSpace=wrap;html=1;fixedSize=1;fontSize=20;" vertex="1" parent="1">
          <mxGeometry x="300" y="120" width="200" height="60" as="geometry" />
        </mxCell>
        <mxCell id="BkH2xJ7Rn7NwIi7T6p0R-13" value="" style="edgeStyle=orthogonalEdgeStyle;rounded=0;orthogonalLoop=1;jettySize=auto;html=1;" edge="1" parent="1" source="BkH2xJ7Rn7NwIi7T6p0R-10" target="BkH2xJ7Rn7NwIi7T6p0R-12">
          <mxGeometry relative="1" as="geometry" />
        </mxCell>
        <mxCell id="BkH2xJ7Rn7NwIi7T6p0R-10" value="GET REAL TIME" style="whiteSpace=wrap;html=1;fontSize=20;" vertex="1" parent="1">
          <mxGeometry x="305" y="220" width="190" height="60" as="geometry" />
        </mxCell>
        <mxCell id="BkH2xJ7Rn7NwIi7T6p0R-15" value="" style="edgeStyle=orthogonalEdgeStyle;rounded=0;orthogonalLoop=1;jettySize=auto;html=1;" edge="1" parent="1" source="BkH2xJ7Rn7NwIi7T6p0R-12">
          <mxGeometry relative="1" as="geometry">
            <mxPoint x="400" y="200" as="targetPoint" />
            <Array as="points">
              <mxPoint x="610" y="400" />
              <mxPoint x="610" y="200" />
            </Array>
          </mxGeometry>
        </mxCell>
        <mxCell id="BkH2xJ7Rn7NwIi7T6p0R-16" value="FALSE" style="edgeLabel;html=1;align=center;verticalAlign=middle;resizable=0;points=[];fontSize=15;" vertex="1" connectable="0" parent="BkH2xJ7Rn7NwIi7T6p0R-15">
          <mxGeometry x="-0.2547" y="1" relative="1" as="geometry">
            <mxPoint y="-13" as="offset" />
          </mxGeometry>
        </mxCell>
        <mxCell id="BkH2xJ7Rn7NwIi7T6p0R-18" value="" style="edgeStyle=orthogonalEdgeStyle;rounded=0;orthogonalLoop=1;jettySize=auto;html=1;entryX=0.5;entryY=0;entryDx=0;entryDy=0;" edge="1" parent="1" source="BkH2xJ7Rn7NwIi7T6p0R-12" target="BkH2xJ7Rn7NwIi7T6p0R-19">
          <mxGeometry relative="1" as="geometry">
            <mxPoint x="400" y="520" as="targetPoint" />
          </mxGeometry>
        </mxCell>
        <mxCell id="BkH2xJ7Rn7NwIi7T6p0R-39" value="TRUE" style="edgeLabel;html=1;align=center;verticalAlign=middle;resizable=0;points=[];fontSize=15;" vertex="1" connectable="0" parent="BkH2xJ7Rn7NwIi7T6p0R-18">
          <mxGeometry x="0.0143" y="-2" relative="1" as="geometry">
            <mxPoint x="2" as="offset" />
          </mxGeometry>
        </mxCell>
        <mxCell id="BkH2xJ7Rn7NwIi7T6p0R-12" value="SET TIME == REAL TIME?" style="rhombus;whiteSpace=wrap;html=1;fontSize=20;" vertex="1" parent="1">
          <mxGeometry x="315" y="320" width="170" height="160" as="geometry" />
        </mxCell>
        <mxCell id="BkH2xJ7Rn7NwIi7T6p0R-21" value="" style="edgeStyle=orthogonalEdgeStyle;rounded=0;orthogonalLoop=1;jettySize=auto;html=1;" edge="1" parent="1" source="BkH2xJ7Rn7NwIi7T6p0R-19" target="BkH2xJ7Rn7NwIi7T6p0R-20">
          <mxGeometry relative="1" as="geometry" />
        </mxCell>
        <mxCell id="BkH2xJ7Rn7NwIi7T6p0R-19" value="GET FOOD &amp;amp; WATER BOWL WEIGHT" style="rounded=0;whiteSpace=wrap;html=1;fontSize=20;" vertex="1" parent="1">
          <mxGeometry x="310" y="540" width="180" height="80" as="geometry" />
        </mxCell>
        <mxCell id="BkH2xJ7Rn7NwIi7T6p0R-26" value="" style="edgeStyle=orthogonalEdgeStyle;rounded=0;orthogonalLoop=1;jettySize=auto;html=1;" edge="1" parent="1" source="BkH2xJ7Rn7NwIi7T6p0R-20" target="BkH2xJ7Rn7NwIi7T6p0R-25">
          <mxGeometry relative="1" as="geometry" />
        </mxCell>
        <mxCell id="BkH2xJ7Rn7NwIi7T6p0R-40" value="TRUE" style="edgeLabel;html=1;align=center;verticalAlign=middle;resizable=0;points=[];fontSize=15;" vertex="1" connectable="0" parent="BkH2xJ7Rn7NwIi7T6p0R-26">
          <mxGeometry x="-0.2575" relative="1" as="geometry">
            <mxPoint as="offset" />
          </mxGeometry>
        </mxCell>
        <mxCell id="BkH2xJ7Rn7NwIi7T6p0R-53" value="" style="edgeStyle=orthogonalEdgeStyle;rounded=0;orthogonalLoop=1;jettySize=auto;html=1;entryX=0.5;entryY=0;entryDx=0;entryDy=0;" edge="1" parent="1" source="BkH2xJ7Rn7NwIi7T6p0R-20" target="BkH2xJ7Rn7NwIi7T6p0R-29">
          <mxGeometry relative="1" as="geometry">
            <mxPoint x="587.5" y="744.9999999999995" as="targetPoint" />
          </mxGeometry>
        </mxCell>
        <mxCell id="BkH2xJ7Rn7NwIi7T6p0R-54" value="FALSE" style="edgeLabel;html=1;align=center;verticalAlign=middle;resizable=0;points=[];fontSize=15;" vertex="1" connectable="0" parent="BkH2xJ7Rn7NwIi7T6p0R-53">
          <mxGeometry x="-0.4538" y="4" relative="1" as="geometry">
            <mxPoint x="-1" y="4" as="offset" />
          </mxGeometry>
        </mxCell>
        <mxCell id="BkH2xJ7Rn7NwIi7T6p0R-20" value="FOOD BOWL&amp;nbsp;&lt;div&gt;WEIGHT &amp;lt;= FOOD QUANTITY SET&lt;/div&gt;" style="rhombus;whiteSpace=wrap;html=1;fontSize=20;rounded=0;" vertex="1" parent="1">
          <mxGeometry x="292.5" y="660" width="215" height="170" as="geometry" />
        </mxCell>
        <mxCell id="BkH2xJ7Rn7NwIi7T6p0R-24" value="" style="edgeStyle=orthogonalEdgeStyle;rounded=0;orthogonalLoop=1;jettySize=auto;html=1;" edge="1" parent="1" source="BkH2xJ7Rn7NwIi7T6p0R-22" target="BkH2xJ7Rn7NwIi7T6p0R-4">
          <mxGeometry relative="1" as="geometry" />
        </mxCell>
        <mxCell id="BkH2xJ7Rn7NwIi7T6p0R-22" value="SET FOOD &amp;amp;&lt;div&gt;WATER QUANTITY&lt;/div&gt;" style="shape=parallelogram;perimeter=parallelogramPerimeter;whiteSpace=wrap;html=1;fixedSize=1;fontSize=20;" vertex="1" parent="1">
          <mxGeometry x="295" y="20" width="210" height="60" as="geometry" />
        </mxCell>
        <mxCell id="BkH2xJ7Rn7NwIi7T6p0R-28" value="" style="edgeStyle=orthogonalEdgeStyle;rounded=0;orthogonalLoop=1;jettySize=auto;html=1;" edge="1" parent="1" source="BkH2xJ7Rn7NwIi7T6p0R-25">
          <mxGeometry relative="1" as="geometry">
            <mxPoint x="380" y="510" as="targetPoint" />
            <Array as="points">
              <mxPoint x="260" y="920" />
            </Array>
          </mxGeometry>
        </mxCell>
        <mxCell id="BkH2xJ7Rn7NwIi7T6p0R-25" value="DISPENSE FOOD" style="whiteSpace=wrap;html=1;fontSize=20;rounded=0;" vertex="1" parent="1">
          <mxGeometry x="340" y="890" width="120" height="60" as="geometry" />
        </mxCell>
        <mxCell id="BkH2xJ7Rn7NwIi7T6p0R-55" value="" style="edgeStyle=orthogonalEdgeStyle;rounded=0;orthogonalLoop=1;jettySize=auto;html=1;" edge="1" parent="1" source="BkH2xJ7Rn7NwIi7T6p0R-29" target="BkH2xJ7Rn7NwIi7T6p0R-32">
          <mxGeometry relative="1" as="geometry" />
        </mxCell>
        <mxCell id="BkH2xJ7Rn7NwIi7T6p0R-69" value="TRUE" style="edgeLabel;html=1;align=center;verticalAlign=middle;resizable=0;points=[];fontSize=15;" vertex="1" connectable="0" parent="BkH2xJ7Rn7NwIi7T6p0R-55">
          <mxGeometry x="-0.3167" y="-1" relative="1" as="geometry">
            <mxPoint x="1" y="3" as="offset" />
          </mxGeometry>
        </mxCell>
        <mxCell id="BkH2xJ7Rn7NwIi7T6p0R-65" value="" style="edgeStyle=orthogonalEdgeStyle;rounded=0;orthogonalLoop=1;jettySize=auto;html=1;" edge="1" parent="1" source="BkH2xJ7Rn7NwIi7T6p0R-29" target="BkH2xJ7Rn7NwIi7T6p0R-64">
          <mxGeometry relative="1" as="geometry">
            <Array as="points">
              <mxPoint x="810" y="915" />
            </Array>
          </mxGeometry>
        </mxCell>
        <mxCell id="BkH2xJ7Rn7NwIi7T6p0R-68" value="FALSE" style="edgeLabel;html=1;align=center;verticalAlign=middle;resizable=0;points=[];fontSize=15;" vertex="1" connectable="0" parent="BkH2xJ7Rn7NwIi7T6p0R-65">
          <mxGeometry x="0.0295" y="-2" relative="1" as="geometry">
            <mxPoint y="-14" as="offset" />
          </mxGeometry>
        </mxCell>
        <mxCell id="BkH2xJ7Rn7NwIi7T6p0R-29" value="WATER BOWL WEIGHT &amp;lt;= WATER QUANTITY SET" style="rhombus;whiteSpace=wrap;html=1;fontSize=20;rounded=0;" vertex="1" parent="1">
          <mxGeometry x="557.5" y="830" width="215" height="170" as="geometry" />
        </mxCell>
        <mxCell id="BkH2xJ7Rn7NwIi7T6p0R-59" value="" style="edgeStyle=orthogonalEdgeStyle;rounded=0;orthogonalLoop=1;jettySize=auto;html=1;" edge="1" parent="1" source="BkH2xJ7Rn7NwIi7T6p0R-32">
          <mxGeometry relative="1" as="geometry">
            <mxPoint x="260" y="920" as="targetPoint" />
          </mxGeometry>
        </mxCell>
        <mxCell id="BkH2xJ7Rn7NwIi7T6p0R-32" value="DISPENSE WATER" style="whiteSpace=wrap;html=1;fontSize=20;rounded=0;" vertex="1" parent="1">
          <mxGeometry x="605" y="1050" width="120" height="60" as="geometry" />
        </mxCell>
        <mxCell id="BkH2xJ7Rn7NwIi7T6p0R-67" value="" style="edgeStyle=orthogonalEdgeStyle;rounded=0;orthogonalLoop=1;jettySize=auto;html=1;" edge="1" parent="1" source="BkH2xJ7Rn7NwIi7T6p0R-64">
          <mxGeometry relative="1" as="geometry">
            <mxPoint x="610" y="400" as="targetPoint" />
            <Array as="points">
              <mxPoint x="805" y="400" />
            </Array>
          </mxGeometry>
        </mxCell>
        <mxCell id="BkH2xJ7Rn7NwIi7T6p0R-64" value="NOTIFICATION TONE" style="whiteSpace=wrap;html=1;fontSize=20;rounded=0;" vertex="1" parent="1">
          <mxGeometry x="725" y="740" width="160" height="60" as="geometry" />
        </mxCell>
      </root>
    </mxGraphModel>
  </diagram>
</mxfile>
